<svg xmlns="http://www.w3.org/2000/svg" width="256" height="256"><path fill-opacity=".016" d="M0 128.004v128.004l128.25-.254 128.25-.254.254-127.75L257.008 0H0v128.004m.485.496c0 70.4.119 99.053.265 63.672.146-35.38.146-92.98 0-128C.604 29.153.485 58.1.485 128.5" fill="#1976D2" fill-rule="evenodd"/><path fill-opacity=".087" d="M113 .634C104.671 2.23 94.625 5.616 88.057 9.04 67.914 19.543 55.471 35.058 48.388 58.5c-2.447 8.098-2.728 10.604-2.804 25l-.084 16 4.229 12.124c7.794 22.346 20.292 47.96 41.902 85.876 13.529 23.738 34.508 57.709 35.743 57.879.481.067 5.931-7.979 12.111-17.879 34.827-55.792 61.916-109.197 68.556-135.159 2.544-9.946 2.573-24.74.072-36.854-5.408-26.205-19.058-44.952-41.066-56.402C154.746 2.686 146.775.832 130 .469c-7.975-.173-15.625-.099-17 .165m6.173 56.79c-9.877 3.219-17.129 11.232-19.202 21.215-4.588 22.103 17.948 40.335 38.78 31.373 5.831-2.509 12.294-8.903 14.852-14.695 2.464-5.579 2.325-16.611-.283-22.406-5.677-12.615-21.266-19.685-34.147-15.487" fill="#1976D2" fill-rule="evenodd"/><path fill-opacity=".267" d="M110.644 1.599C82.208 6.736 59.7 25.994 50.464 53.09c-5.752 16.872-6.829 34.274-3.045 49.191 6.986 27.538 34.242 80.982 71.353 139.912l8.624 13.693 3.135-4.693c22.876-34.235 59.926-101.982 70.381-128.693 7.277-18.595 9.349-28.198 8.735-40.5-1.234-24.707-9.152-44.41-23.691-58.949-18.332-18.331-47.149-26.54-75.312-21.452m6.741 56.018c-5.756 2.042-11.985 7.691-15.156 13.745-3.624 6.921-3.867 18.929-.509 25.254 3.455 6.51 6.967 10.084 12.636 12.858 18.419 9.011 39.556-2.381 41.361-22.292.831-9.166-1.702-16.297-8.042-22.637-8.044-8.044-19.655-10.7-30.29-6.928" fill="#1976D2" fill-rule="evenodd"/><path fill-opacity=".148" d="M116.472.983C87.883 5.002 66.88 19.512 54.651 43.693c-6.585 13.02-10.78 37.481-8.68 50.623 1.343 8.409 4.889 19.71 10.161 32.385 5.999 14.423 23.187 48.096 35.628 69.799 10.663 18.602 31.161 52.402 34.348 56.638 1.563 2.078 1.899 1.669 12.093-14.751 36.312-58.487 61.612-108.209 69.005-135.612 1.728-6.407 2.194-10.654 2.066-18.812-.652-41.33-23.651-72.157-60.379-80.93C139.249.73 124.78-.185 116.472.983m5.262 55.068C107.929 59.44 99.044 70.58 99.044 84.5c0 10.969 5.013 19.509 14.843 25.288 4.094 2.407 5.626 2.712 13.613 2.712 7.987 0 9.519-.305 13.613-2.712 5.519-3.244 10.472-8.665 12.997-14.223 2.761-6.079 2.531-16.671-.5-23.065-5.663-11.943-20.03-19.357-31.876-16.449" fill="#1976D2" fill-rule="evenodd"/></svg>